<svg width="32" height="32" viewBox="0 0 32 32" fill="none" xmlns="http://www.w3.org/2000/svg">
<g clip-path="url(#clip0_313_6)">
<path d="M16 0C7.14666 0 0 7.14666 0 16C0 24.8533 7.14666 32 16 32C24.8533 32 32 24.8533 32 16C32 7.14666 24.8533 0 16 0ZM16 2.18666C23.6267 2.18666 29.8133 8.37331 29.8133 16C29.8133 18.72 29.0133 21.28 27.6267 23.4133C25.3333 20.96 22.2933 19.2533 18.8267 18.6667C21.0133 17.6 22.56 15.36 22.56 12.8C22.56 9.17338 19.6267 6.24003 16 6.24003C12.3734 6.24003 9.44003 9.17338 9.44003 12.8C9.44003 15.4134 10.9334 17.6534 13.1734 18.6667C9.70672 19.3067 6.66672 21.0133 4.37337 23.4667C2.98672 21.3333 2.18672 18.7733 2.18672 16C2.18672 8.37337 8.37338 2.18669 16.0001 2.18669L16 2.18666Z" fill="white"/>
</g>
<defs>
<clipPath id="clip0_313_6">
<rect width="32" height="32" fill="white"/>
</clipPath>
</defs>
</svg>
