<svg width="16" height="16" viewBox="0 0 16 16" fill="none" xmlns="http://www.w3.org/2000/svg">
<path d="M13.1712 12.1581L9.01341 8.00023L13.1712 3.84195C13.3068 3.70641 13.3813 3.5262 13.3812 3.33449C13.3811 3.14335 13.3066 2.96394 13.1716 2.82929C13.0364 2.6937 12.8567 2.61913 12.6656 2.61902C12.4736 2.61902 12.2936 2.69358 12.1582 2.82894L8.00047 6.98665L3.84207 2.82894C3.70671 2.69358 3.52683 2.61902 3.33557 2.61902C3.14432 2.61902 2.96444 2.69356 2.82909 2.82891C2.69378 2.96386 2.61927 3.14335 2.61914 3.33449C2.61901 3.5262 2.69357 3.70641 2.82909 3.84193L6.98746 8.00022L2.82908 12.1581C2.6937 12.2935 2.61914 12.4733 2.61914 12.6646C2.61914 12.8559 2.69371 13.0357 2.82909 13.1711C2.96444 13.3065 3.1443 13.381 3.33555 13.381C3.52681 13.381 3.70671 13.3065 3.84206 13.1711L8.00041 9.01331L12.1582 13.1711C12.2936 13.3065 12.4736 13.381 12.6652 13.381C12.8568 13.3809 13.0362 13.3065 13.1709 13.1714C13.4504 12.8919 13.4505 12.4374 13.1712 12.1581Z" fill="#999999"/>
</svg>
