<svg width="50" height="56" viewBox="0 0 50 56" fill="none" xmlns="http://www.w3.org/2000/svg">
<path fill-rule="evenodd" clip-rule="evenodd" d="M13 14C13 15.1046 13.8954 16 15 16C16.1046 16 17 15.1046 17 14V10H33V14C33 15.1046 33.8954 16 35 16C36.1046 16 37 15.1046 37 14V10H40C43.3137 10 46 12.6863 46 16V21H4V16C4 12.6863 6.68629 10 10 10H13V14ZM17 6H33V2C33 0.895431 33.8954 0 35 0C36.1046 0 37 0.895431 37 2V6H40C45.5228 6 50 10.4772 50 16V21V25V46C50 51.5228 45.5228 56 40 56H10C4.47715 56 0 51.5228 0 46V25V21V16C0 10.4772 4.47715 6 10 6H13V2C13 0.895431 13.8954 0 15 0C16.1046 0 17 0.895431 17 2V6ZM46 46V25H4V46C4 49.3137 6.68629 52 10 52H40C43.3137 52 46 49.3137 46 46ZM32.8202 34.84V38.26H27.9202V44.14H33.8402V47.58H15.7402V44.14H18.4402V32.52L21.6802 32.6V44.14H24.6202V29.7L27.9202 29.78V34.84H32.8202Z" fill="#E87825"/>
</svg>
