<svg width="32" height="32" viewBox="0 0 32 32" fill="none" xmlns="http://www.w3.org/2000/svg">
<path d="M25.0663 4.49006C26.0424 5.18419 26.9102 5.97064 27.6693 6.849C28.4286 7.72761 29.0793 8.67655 29.6216 9.69602C30.164 10.7155 30.576 11.7947 30.8581 12.9335C31.1401 14.0723 31.281 15.2274 31.281 16.3987C31.281 18.4161 30.896 20.3086 30.126 22.0766C29.3559 23.8444 28.3147 25.3845 27.0024 26.6968C25.6901 28.0092 24.15 29.0503 22.382 29.8204C20.6143 30.5904 18.7216 30.9756 16.7044 30.9756C14.7088 30.9756 12.8269 30.5904 11.0591 29.8204C9.29118 29.0503 7.74566 28.0092 6.42257 26.6968C5.09934 25.3845 4.05815 23.8444 3.29895 22.0766C2.53969 20.3086 2.16016 18.4161 2.16016 16.3987C2.16016 15.2491 2.29567 14.1211 2.56688 13.0149C2.8381 11.9087 3.22302 10.8566 3.72191 9.8587C4.22091 8.86099 4.83909 7.92825 5.57661 7.06067C6.3141 6.1929 7.13832 5.41199 8.04948 4.71789C8.52675 4.37077 9.04183 4.24065 9.595 4.32736C10.148 4.41428 10.5981 4.68531 10.9453 5.14081C11.2924 5.59649 11.4225 6.10613 11.3358 6.67014C11.2489 7.23411 10.9779 7.68958 10.5224 8.03679C9.15573 9.0345 8.10909 10.2601 7.38238 11.7134C6.65588 13.1668 6.29257 14.7285 6.29257 16.3988C6.29257 17.8304 6.5636 19.1808 7.10603 20.4497C7.64826 21.7187 8.39114 22.8248 9.33466 23.7684C10.2785 24.7122 11.3846 25.4605 12.6536 26.0136C13.9225 26.5666 15.2727 26.8433 16.7045 26.8433C18.1361 26.8433 19.4864 26.5666 20.7553 26.0136C22.0243 25.4605 23.1306 24.7122 24.0742 23.7684C25.0178 22.8248 25.766 21.7187 26.3192 20.4497C26.8724 19.1808 27.1489 17.8304 27.1489 16.3988C27.1489 14.7069 26.7585 13.1071 25.9777 11.5995C25.1966 10.092 24.1012 8.85021 22.6914 7.87409C22.2141 7.54871 21.9267 7.10399 21.8291 6.54001C21.7314 5.976 21.8453 5.45538 22.1707 4.97808C22.4961 4.52261 22.9408 4.24597 23.5048 4.14846C24.0687 4.05094 24.5891 4.16468 25.0663 4.49006ZM16.7044 16.4965C16.1403 16.4965 15.6577 16.2958 15.2564 15.8945C14.8551 15.4932 14.6544 15.0105 14.6544 14.4465V2.08234C14.6544 1.51833 14.855 1.03029 15.2564 0.618172C15.6577 0.206026 16.1403 0 16.7044 0C17.2899 0 17.7834 0.206026 18.1847 0.618172C18.5861 1.03029 18.7867 1.51833 18.7867 2.08234V14.4465C18.7867 15.0105 18.5861 15.4932 18.1847 15.8945C17.7834 16.2958 17.2899 16.4965 16.7044 16.4965Z" fill="white"/>
</svg>
