<?xml version="1.0" standalone="no"?><!DOCTYPE svg PUBLIC "-//W3C//DTD SVG 1.1//EN" "http://www.w3.org/Graphics/SVG/1.1/DTD/svg11.dtd"><svg class="icon" width="200px" height="194.31px" viewBox="0 0 1054 1024" version="1.1" xmlns="http://www.w3.org/2000/svg"><path d="M120.470588 240.941176c0-33.129412-27.105882-60.235294-60.235294-60.235294s-60.235294 27.105882-60.235294 60.235294 27.105882 60.235294 60.235294 60.235295 60.235294-27.105882 60.235294-60.235295zM969.788235 376.470588l-237.929411 111.435294c-9.035294 6.023529-18.070588 3.011765-24.094118-6.023529L542.117647 219.858824c-6.023529-12.047059-24.094118-12.047059-30.117647 0L346.352941 481.882353c-6.023529 9.035294-15.058824 12.047059-24.094117 6.023529l-237.929412-111.435294c-12.047059-9.035294-30.117647 6.023529-24.094118 21.082353l69.270588 617.411765c3.011765 3.011765 9.035294 9.035294 15.058824 9.035294h771.011765c6.023529 0 15.058824-6.023529 15.058823-12.047059l60.235294-617.411765c6.023529-15.058824-9.035294-27.105882-21.082353-18.070588zM587.294118 954.729412h-72.282353V569.223529c-27.105882 27.105882-66.258824 48.188235-108.42353 60.235295v-72.282353c21.082353-6.023529 42.164706-15.058824 66.258824-27.105883 24.094118-15.058824 45.176471-30.117647 60.235294-48.188235h54.211765v472.847059zM993.882353 180.705882c-33.129412 0-60.235294 27.105882-60.235294 60.235294s27.105882 60.235294 60.235294 60.235295 60.235294-27.105882 60.235294-60.235295-27.105882-60.235294-60.235294-60.235294zM527.058824 120.470588c33.129412 0 60.235294-27.105882 60.235294-60.235294s-27.105882-60.235294-60.235294-60.235294-60.235294 27.105882-60.235295 60.235294 27.105882 60.235294 60.235295 60.235294z" fill="#FD7349" /></svg>