<svg width="49" height="58" viewBox="0 0 49 58" fill="none" xmlns="http://www.w3.org/2000/svg">
<path fill-rule="evenodd" clip-rule="evenodd" d="M30 4H10C6.68629 4 4 6.68629 4 10V40C4 43.3137 6.68629 46 10 46H30C33.3137 46 36 43.3137 36 40V10C36 6.68629 33.3137 4 30 4ZM10 0C4.47715 0 0 4.47715 0 10V40C0 45.5228 4.47715 50 10 50H30C35.5228 50 40 45.5228 40 40V10C40 4.47715 35.5228 0 30 0H10Z" fill="#E87825"/>
<path fill-rule="evenodd" clip-rule="evenodd" d="M9.19359 49.968C10.1077 54.5484 14.1508 58 19 58H39C44.5228 58 49 53.5228 49 48V18C49 12.7486 44.9522 8.44266 39.8064 8.03205C39.9334 8.66832 40 9.32638 40 10V12.083C42.8377 12.559 45 15.027 45 18V48C45 51.3137 42.3137 54 39 54H19C16.3876 54 14.1651 52.3304 13.3414 50H10C9.72853 50 9.45959 49.9892 9.19359 49.968Z" fill="#E87825"/>
<path fill-rule="evenodd" clip-rule="evenodd" d="M9 15C9 13.8954 9.89543 13 11 13H29C30.1046 13 31 13.8954 31 15C31 16.1046 30.1046 17 29 17H11C9.89543 17 9 16.1046 9 15Z" fill="#E87825"/>
<path fill-rule="evenodd" clip-rule="evenodd" d="M9 25C9 23.8954 9.89543 23 11 23H29C30.1046 23 31 23.8954 31 25C31 26.1046 30.1046 27 29 27H11C9.89543 27 9 26.1046 9 25Z" fill="#E87825"/>
<path fill-rule="evenodd" clip-rule="evenodd" d="M9 35C9 33.8954 9.89543 33 11 33H21C22.1046 33 23 33.8954 23 35C23 36.1046 22.1046 37 21 37H11C9.89543 37 9 36.1046 9 35Z" fill="#E87825"/>
</svg>
