<svg width="50" height="56" viewBox="0 0 50 56" fill="none" xmlns="http://www.w3.org/2000/svg">
<path fill-rule="evenodd" clip-rule="evenodd" d="M13 14C13 15.1046 13.8954 16 15 16C16.1046 16 17 15.1046 17 14V10H33V14C33 15.1046 33.8954 16 35 16C36.1046 16 37 15.1046 37 14V10H40C43.3137 10 46 12.6863 46 16V21H4V16C4 12.6863 6.68629 10 10 10H13V14ZM17 6H33V2C33 0.895431 33.8954 0 35 0C36.1046 0 37 0.895431 37 2V6H40C45.5228 6 50 10.4772 50 16V21V25V46C50 51.5228 45.5228 56 40 56H10C4.47715 56 0 51.5228 0 46V25V21V16C0 10.4772 4.47715 6 10 6H13V2C13 0.895431 13.8954 0 15 0C16.1046 0 17 0.895431 17 2V6ZM46 46V25H4V46C4 49.3137 6.68629 52 10 52H40C43.3137 52 46 49.3137 46 46ZM21.9601 42.44C22.8601 43.26 23.5601 43.9 24.0401 44.38V39.12H33.2401V47.98H24.0401V44.48L22.1601 47.42C21.5001 46.7 20.8801 46.06 20.3201 45.5C19.8201 46.24 19.0801 47.22 18.0801 48.46L15.5801 46.5C16.7201 45.28 17.5801 44.24 18.1601 43.4C17.2601 42.54 16.5201 41.86 15.9401 41.38C16.4001 39.44 16.7801 37.54 17.0401 35.64H15.9201V32.56H17.4201L17.6401 29.68L20.6201 29.84L20.4801 31.92L20.4201 32.56H23.2801V35.18C23.9001 34.84 24.2601 34.48 24.6601 33.78C25.2401 32.8 25.8801 31.4 26.5801 29.58L29.8401 30.02C29.5201 30.78 29.1201 31.62 28.6601 32.52C28.2001 33.42 27.7601 34.22 27.3201 34.88L29.3801 34.74L30.0001 34.7C29.5801 33.76 29.2201 33.08 28.9401 32.66L31.3201 31.54C31.7401 32.18 32.2601 33.06 32.8801 34.2C33.5001 35.32 34.0401 36.32 34.4601 37.2L31.8601 38.9L31.5801 38.24L31.3201 37.64C28.7801 37.8 26.9601 37.94 25.9001 38.04C25.0801 38.1 24.4001 38.2 23.8201 38.32L23.2801 35.86C23.0601 38.68 22.6801 40.68 21.9601 42.44ZM19.9201 40.66C20.3801 39.12 20.6401 37.46 20.7401 35.64H19.7801C19.6401 36.78 19.4001 38.22 19.0601 39.96C19.3401 40.18 19.6201 40.4 19.9201 40.66ZM27.0201 45.02H30.2401V42.08H27.0201V45.02Z" fill="#E87825"/>
</svg>
